<?xml version="1.0" encoding="UTF-8" standalone="no" ?>
<!DOCTYPE svg PUBLIC "-//W3C//DTD SVG 1.1//EN" "http://www.w3.org/Graphics/SVG/1.1/DTD/svg11.dtd">
<svg xmlns="http://www.w3.org/2000/svg" xmlns:xlink="http://www.w3.org/1999/xlink" version="1.1" width="640"
    height="480" viewBox="0 0 640 480" xml:space="preserve">
    <desc>Created with Fabric.js 3.6.6</desc>
    <defs>
    </defs>
    <g transform="matrix(0.74 0 0 0.74 323.13 238.13)">
        <linearGradient id="SVGID_877" gradientUnits="userSpaceOnUse" gradientTransform="matrix(1 0 0 1 0 0)"
            x1="414.72" y1="56.32" x2="97.28" y2="455.68">
            <stop offset="0%" style="stop-color:rgba(255, 0, 203, 1);" />
            <stop offset="100%" style="stop-color:rgba(255, 229, 0, 1);" />
        </linearGradient>
        <path
            style="stroke: rgb(0,0,0); stroke-opacity: 0; stroke-width: 1; stroke-dasharray: ; stroke-linecap: butt; stroke-dashoffset: 0; stroke-linejoin: miter; stroke-miterlimit: 4; fill: url(#SVGID_877); fill-rule: nonzero; opacity: 1;"
            vector-effect="non-scaling-stroke" transform=" translate(-256, -256)"
            d="M 192 32 c 0 17.7 14.3 32 32 32 c 123.7 0 224 100.3 224 224 c 0 17.7 14.3 32 32 32 s 32 -14.3 32 -32 C 512 128.9 383.1 0 224 0 c -17.7 0 -32 14.3 -32 32 z m 0 96 c 0 17.7 14.3 32 32 32 c 70.7 0 128 57.3 128 128 c 0 17.7 14.3 32 32 32 s 32 -14.3 32 -32 c 0 -106 -86 -192 -192 -192 c -17.7 0 -32 14.3 -32 32 z M 96 144 c 0 -26.5 -21.5 -48 -48 -48 S 0 117.5 0 144 V 368 c 0 79.5 64.5 144 144 144 s 144 -64.5 144 -144 s -64.5 -144 -144 -144 H 128 v 96 h 16 c 26.5 0 48 21.5 48 48 s -21.5 48 -48 48 s -48 -21.5 -48 -48 V 144 z"
            stroke-linecap="round" />
    </g>
</svg>